<svg xmlns="http://www.w3.org/2000/svg" width="213" height="180" viewBox="0 0 213 180">
  <g id="Group_24" data-name="Group 24" transform="translate(-730 -293)">
    <g id="Group_4" data-name="Group 4" transform="translate(550 85)">
      <g id="Rectangle_8" data-name="Rectangle 8" transform="translate(180 208)" fill="rgba(0,45,91,0.16)" stroke="#002d5b" stroke-width="1" stroke-dasharray="1 4">
        <rect width="30" height="30" stroke="none"/>
        <rect x="0.5" y="0.5" width="29" height="29" fill="none"/>
      </g>
      <text id="M" transform="translate(195 227)" fill="#002d5b" font-size="11" font-family="ArialMT, Arial"><tspan x="-4.582" y="0">M</tspan></text>
      <g id="Rectangle_9" data-name="Rectangle 9" transform="translate(210 208)" fill="rgba(0,45,91,0.16)" stroke="#002d5b" stroke-width="1" stroke-dasharray="1 4">
        <rect width="30" height="30" stroke="none"/>
        <rect x="0.5" y="0.5" width="29" height="29" fill="none"/>
      </g>
      <text id="T" transform="translate(225 227)" fill="#002d5b" font-size="11" font-family="ArialMT, Arial"><tspan x="-3.36" y="0">T</tspan></text>
      <g id="Rectangle_10" data-name="Rectangle 10" transform="translate(240 208)" fill="rgba(0,45,91,0.16)" stroke="#002d5b" stroke-width="1" stroke-dasharray="1 4">
        <rect width="30" height="30" stroke="none"/>
        <rect x="0.5" y="0.5" width="29" height="29" fill="none"/>
      </g>
      <text id="W" transform="translate(255 227)" fill="#002d5b" font-size="11" font-family="ArialMT, Arial"><tspan x="-5.191" y="0">W</tspan></text>
      <g id="Rectangle_11" data-name="Rectangle 11" transform="translate(270 208)" fill="rgba(0,45,91,0.16)" stroke="#002d5b" stroke-width="1" stroke-dasharray="1 4">
        <rect width="30" height="30" stroke="none"/>
        <rect x="0.5" y="0.5" width="29" height="29" fill="none"/>
      </g>
      <text id="T-2" data-name="T" transform="translate(285 227)" fill="#002d5b" font-size="11" font-family="ArialMT, Arial"><tspan x="-3.36" y="0">T</tspan></text>
      <g id="Rectangle_12" data-name="Rectangle 12" transform="translate(300 208)" fill="rgba(0,45,91,0.16)" stroke="#002d5b" stroke-width="1" stroke-dasharray="1 4">
        <rect width="30" height="30" stroke="none"/>
        <rect x="0.5" y="0.5" width="29" height="29" fill="none"/>
      </g>
      <text id="F" transform="translate(315 227)" fill="#002d5b" font-size="11" font-family="ArialMT, Arial"><tspan x="-3.36" y="0">F</tspan></text>
      <g id="Rectangle_13" data-name="Rectangle 13" transform="translate(330 208)" fill="rgba(0,45,91,0.16)" stroke="#002d5b" stroke-width="1" stroke-dasharray="1 4">
        <rect width="30" height="30" stroke="none"/>
        <rect x="0.5" y="0.5" width="29" height="29" fill="none"/>
      </g>
      <text id="S" transform="translate(345 227)" fill="#002d5b" font-size="11" font-family="ArialMT, Arial"><tspan x="-3.668" y="0">S</tspan></text>
      <g id="Rectangle_14" data-name="Rectangle 14" transform="translate(360 208)" fill="rgba(0,45,91,0.16)" stroke="#002d5b" stroke-width="1" stroke-dasharray="1 4">
        <rect width="30" height="30" stroke="none"/>
        <rect x="0.5" y="0.5" width="29" height="29" fill="none"/>
      </g>
      <text id="S-2" data-name="S" transform="translate(375 227)" fill="#002d5b" font-size="11" font-family="ArialMT, Arial"><tspan x="-3.668" y="0">S</tspan></text>
      <g id="Rectangle_15" data-name="Rectangle 15" transform="translate(180 238)" fill="none" stroke="#002d5b" stroke-width="1" stroke-dasharray="1 4">
        <rect width="30" height="30" stroke="none"/>
        <rect x="0.5" y="0.5" width="29" height="29" fill="none"/>
      </g>
      <g id="Rectangle_16" data-name="Rectangle 16" transform="translate(210 238)" fill="none" stroke="#002d5b" stroke-width="1" stroke-dasharray="1 4">
        <rect width="30" height="30" stroke="none"/>
        <rect x="0.5" y="0.5" width="29" height="29" fill="none"/>
      </g>
      <g id="Rectangle_17" data-name="Rectangle 17" transform="translate(240 238)" fill="none" stroke="#002d5b" stroke-width="1" stroke-dasharray="1 4">
        <rect width="30" height="30" stroke="none"/>
        <rect x="0.5" y="0.5" width="29" height="29" fill="none"/>
      </g>
      <g id="Rectangle_18" data-name="Rectangle 18" transform="translate(270 238)" fill="none" stroke="#002d5b" stroke-width="1" stroke-dasharray="1 4">
        <rect width="30" height="30" stroke="none"/>
        <rect x="0.5" y="0.5" width="29" height="29" fill="none"/>
      </g>
      <g id="Rectangle_19" data-name="Rectangle 19" transform="translate(300 238)" fill="none" stroke="#002d5b" stroke-width="1" stroke-dasharray="1 4">
        <rect width="30" height="30" stroke="none"/>
        <rect x="0.5" y="0.5" width="29" height="29" fill="none"/>
      </g>
      <g id="Rectangle_20" data-name="Rectangle 20" transform="translate(330 238)" fill="none" stroke="#002d5b" stroke-width="1" stroke-dasharray="1 4">
        <rect width="30" height="30" stroke="none"/>
        <rect x="0.5" y="0.5" width="29" height="29" fill="none"/>
      </g>
      <g id="Rectangle_21" data-name="Rectangle 21" transform="translate(360 238)" fill="none" stroke="#002d5b" stroke-width="1" stroke-dasharray="1 4">
        <rect width="30" height="30" stroke="none"/>
        <rect x="0.5" y="0.5" width="29" height="29" fill="none"/>
      </g>
      <g id="Rectangle_22" data-name="Rectangle 22" transform="translate(180 268)" fill="none" stroke="#002d5b" stroke-width="1" stroke-dasharray="1 4">
        <rect width="30" height="30" stroke="none"/>
        <rect x="0.5" y="0.5" width="29" height="29" fill="none"/>
      </g>
      <g id="Rectangle_23" data-name="Rectangle 23" transform="translate(210 268)" fill="none" stroke="#002d5b" stroke-width="1" stroke-dasharray="1 4">
        <rect width="30" height="30" stroke="none"/>
        <rect x="0.5" y="0.5" width="29" height="29" fill="none"/>
      </g>
      <g id="Rectangle_24" data-name="Rectangle 24" transform="translate(240 268)" fill="none" stroke="#002d5b" stroke-width="1" stroke-dasharray="1 4">
        <rect width="30" height="30" stroke="none"/>
        <rect x="0.5" y="0.5" width="29" height="29" fill="none"/>
      </g>
      <g id="Rectangle_25" data-name="Rectangle 25" transform="translate(270 268)" fill="none" stroke="#002d5b" stroke-width="1" stroke-dasharray="1 4">
        <rect width="30" height="30" stroke="none"/>
        <rect x="0.5" y="0.5" width="29" height="29" fill="none"/>
      </g>
      <g id="Rectangle_26" data-name="Rectangle 26" transform="translate(300 268)" fill="none" stroke="#002d5b" stroke-width="1" stroke-dasharray="1 4">
        <rect width="30" height="30" stroke="none"/>
        <rect x="0.5" y="0.5" width="29" height="29" fill="none"/>
      </g>
      <g id="Rectangle_27" data-name="Rectangle 27" transform="translate(330 268)" fill="none" stroke="#002d5b" stroke-width="1" stroke-dasharray="1 4">
        <rect width="30" height="30" stroke="none"/>
        <rect x="0.5" y="0.5" width="29" height="29" fill="none"/>
      </g>
      <g id="Rectangle_28" data-name="Rectangle 28" transform="translate(360 268)" fill="none" stroke="#002d5b" stroke-width="1" stroke-dasharray="1 4">
        <rect width="30" height="30" stroke="none"/>
        <rect x="0.5" y="0.5" width="29" height="29" fill="none"/>
      </g>
      <g id="Rectangle_29" data-name="Rectangle 29" transform="translate(180 298)" fill="none" stroke="#002d5b" stroke-width="1" stroke-dasharray="1 4">
        <rect width="30" height="30" stroke="none"/>
        <rect x="0.5" y="0.5" width="29" height="29" fill="none"/>
      </g>
      <g id="Rectangle_30" data-name="Rectangle 30" transform="translate(210 298)" fill="none" stroke="#002d5b" stroke-width="1" stroke-dasharray="1 4">
        <rect width="30" height="30" stroke="none"/>
        <rect x="0.5" y="0.5" width="29" height="29" fill="none"/>
      </g>
      <g id="Rectangle_31" data-name="Rectangle 31" transform="translate(240 298)" fill="none" stroke="#002d5b" stroke-width="1" stroke-dasharray="1 4">
        <rect width="30" height="30" stroke="none"/>
        <rect x="0.5" y="0.5" width="29" height="29" fill="none"/>
      </g>
      <g id="Rectangle_32" data-name="Rectangle 32" transform="translate(270 298)" fill="none" stroke="#002d5b" stroke-width="1" stroke-dasharray="1 4">
        <rect width="30" height="30" stroke="none"/>
        <rect x="0.5" y="0.5" width="29" height="29" fill="none"/>
      </g>
      <g id="Rectangle_33" data-name="Rectangle 33" transform="translate(300 298)" fill="none" stroke="#002d5b" stroke-width="1" stroke-dasharray="1 4">
        <rect width="30" height="30" stroke="none"/>
        <rect x="0.5" y="0.5" width="29" height="29" fill="none"/>
      </g>
      <g id="Rectangle_34" data-name="Rectangle 34" transform="translate(330 298)" fill="none" stroke="#002d5b" stroke-width="1" stroke-dasharray="1 4">
        <rect width="30" height="30" stroke="none"/>
        <rect x="0.5" y="0.5" width="29" height="29" fill="none"/>
      </g>
      <g id="Rectangle_35" data-name="Rectangle 35" transform="translate(360 298)" fill="none" stroke="#002d5b" stroke-width="1" stroke-dasharray="1 4">
        <rect width="30" height="30" stroke="none"/>
        <rect x="0.5" y="0.5" width="29" height="29" fill="none"/>
      </g>
      <g id="Rectangle_36" data-name="Rectangle 36" transform="translate(180 328)" fill="none" stroke="#002d5b" stroke-width="1" stroke-dasharray="1 4">
        <rect width="30" height="30" stroke="none"/>
        <rect x="0.5" y="0.5" width="29" height="29" fill="none"/>
      </g>
      <g id="Rectangle_37" data-name="Rectangle 37" transform="translate(210 328)" fill="none" stroke="#002d5b" stroke-width="1" stroke-dasharray="1 4">
        <rect width="30" height="30" stroke="none"/>
        <rect x="0.5" y="0.5" width="29" height="29" fill="none"/>
      </g>
      <g id="Rectangle_38" data-name="Rectangle 38" transform="translate(240 328)" fill="none" stroke="#002d5b" stroke-width="1" stroke-dasharray="1 4">
        <rect width="30" height="30" stroke="none"/>
        <rect x="0.5" y="0.5" width="29" height="29" fill="none"/>
      </g>
      <g id="Rectangle_39" data-name="Rectangle 39" transform="translate(270 328)" fill="none" stroke="#002d5b" stroke-width="1" stroke-dasharray="1 4">
        <rect width="30" height="30" stroke="none"/>
        <rect x="0.5" y="0.5" width="29" height="29" fill="none"/>
      </g>
      <g id="Rectangle_40" data-name="Rectangle 40" transform="translate(300 328)" fill="none" stroke="#002d5b" stroke-width="1" stroke-dasharray="1 4">
        <rect width="30" height="30" stroke="none"/>
        <rect x="0.5" y="0.5" width="29" height="29" fill="none"/>
      </g>
      <g id="Rectangle_41" data-name="Rectangle 41" transform="translate(330 328)" fill="none" stroke="#002d5b" stroke-width="1" stroke-dasharray="1 4">
        <rect width="30" height="30" stroke="none"/>
        <rect x="0.5" y="0.5" width="29" height="29" fill="none"/>
      </g>
      <g id="Rectangle_42" data-name="Rectangle 42" transform="translate(360 328)" fill="none" stroke="#002d5b" stroke-width="1" stroke-dasharray="1 4">
        <rect width="30" height="30" stroke="none"/>
        <rect x="0.5" y="0.5" width="29" height="29" fill="none"/>
      </g>
      <g id="Rectangle_43" data-name="Rectangle 43" transform="translate(180 358)" fill="none" stroke="#002d5b" stroke-width="1" stroke-dasharray="1 4">
        <rect width="30" height="30" stroke="none"/>
        <rect x="0.5" y="0.5" width="29" height="29" fill="none"/>
      </g>
      <g id="Rectangle_44" data-name="Rectangle 44" transform="translate(210 358)" fill="none" stroke="#002d5b" stroke-width="1" stroke-dasharray="1 4">
        <rect width="30" height="30" stroke="none"/>
        <rect x="0.5" y="0.5" width="29" height="29" fill="none"/>
      </g>
      <g id="Rectangle_45" data-name="Rectangle 45" transform="translate(240 358)" fill="none" stroke="#002d5b" stroke-width="1" stroke-dasharray="1 4">
        <rect width="30" height="30" stroke="none"/>
        <rect x="0.5" y="0.5" width="29" height="29" fill="none"/>
      </g>
      <g id="Rectangle_46" data-name="Rectangle 46" transform="translate(270 358)" fill="none" stroke="#002d5b" stroke-width="1" stroke-dasharray="1 4">
        <rect width="30" height="30" stroke="none"/>
        <rect x="0.5" y="0.5" width="29" height="29" fill="none"/>
      </g>
      <g id="Rectangle_47" data-name="Rectangle 47" transform="translate(300 358)" fill="none" stroke="#002d5b" stroke-width="1" stroke-dasharray="1 4">
        <rect width="30" height="30" stroke="none"/>
        <rect x="0.5" y="0.5" width="29" height="29" fill="none"/>
      </g>
      <g id="Rectangle_48" data-name="Rectangle 48" transform="translate(330 358)" fill="none" stroke="#002d5b" stroke-width="1" stroke-dasharray="1 4">
        <rect width="30" height="30" stroke="none"/>
        <rect x="0.5" y="0.5" width="29" height="29" fill="none"/>
      </g>
      <g id="Rectangle_49" data-name="Rectangle 49" transform="translate(360 358)" fill="none" stroke="#002d5b" stroke-width="1" stroke-dasharray="1 4">
        <rect width="30" height="30" stroke="none"/>
        <rect x="0.5" y="0.5" width="29" height="29" fill="none"/>
      </g>
      <g id="Group_23" data-name="Group 23">
        <g id="Rectangle_52" data-name="Rectangle 52" transform="translate(180 208)" fill="rgba(255,255,255,0.56)" stroke="#002d5b" stroke-width="1">
          <rect width="213" height="180" stroke="none"/>
          <rect x="0.5" y="0.5" width="212" height="179" fill="none"/>
        </g>
      </g>
    </g>
  </g>
</svg>
